<?xml version="1.0" encoding="utf-8"?>
<!-- Generator: Adobe Illustrator 25.2.1, SVG Export Plug-In . SVG Version: 6.00 Build 0)  -->
<svg version="1.1" id="Capa_1" xmlns="http://www.w3.org/2000/svg" xmlns:xlink="http://www.w3.org/1999/xlink" x="0px" y="0px"
	 viewBox="0 0 445.9 424.8" style="enable-background:new 0 0 445.9 424.8;" xml:space="preserve">
<style type="text/css">
	.st0{fill:#FFFFFF;}
</style>
<g>
	<path class="st0" d="M67.4,74c0-4.1-0.1-7.4-0.3-10.4h5.2l0.3,5.5h0.1c2.4-3.9,6.1-6.2,11.3-6.2c7.7,0,13.5,6.5,13.5,16.2
		c0,11.4-7,17.1-14.5,17.1c-4.2,0-7.9-1.8-9.8-5h-0.1v17.3h-5.7V74z M73.1,82.5c0,0.9,0.1,1.6,0.3,2.4c1.1,4,4.5,6.8,8.7,6.8
		c6.1,0,9.7-5,9.7-12.3c0-6.4-3.4-11.8-9.5-11.8c-3.9,0-7.6,2.8-8.7,7.2c-0.2,0.7-0.4,1.6-0.4,2.4V82.5z"/>
	<path class="st0" d="M133.6,79.3c0,11.8-8.2,16.9-15.8,16.9c-8.6,0-15.2-6.3-15.2-16.4c0-10.6,7-16.9,15.8-16.9
		C127.4,62.9,133.6,69.5,133.6,79.3z M108.3,79.6c0,7,4,12.2,9.7,12.2c5.5,0,9.7-5.2,9.7-12.4c0-5.4-2.7-12.2-9.5-12.2
		C111.3,67.2,108.3,73.5,108.3,79.6z"/>
	<path class="st0" d="M142.7,63.6l4.2,16.2c0.9,3.5,1.8,6.8,2.4,10.1h0.2c0.7-3.2,1.8-6.6,2.8-10.1l5.2-16.2h4.9l4.9,15.9
		c1.2,3.8,2.1,7.2,2.8,10.4h0.2c0.5-3.2,1.4-6.6,2.4-10.3l4.5-16h5.7l-10.3,31.8h-5.3l-4.9-15.2c-1.1-3.6-2-6.7-2.8-10.5h-0.1
		c-0.8,3.8-1.8,7.1-2.9,10.5l-5.1,15.1h-5.3l-9.6-31.8H142.7z"/>
	<path class="st0" d="M191.4,80.6c0.1,7.8,5.1,11,10.9,11c4.1,0,6.6-0.7,8.8-1.6l1,4.1c-2,0.9-5.5,2-10.6,2c-9.8,0-15.6-6.4-15.6-16
		s5.7-17.2,14.9-17.2c10.4,0,13.1,9.1,13.1,15c0,1.2-0.1,2.1-0.2,2.7H191.4z M208.3,76.4c0.1-3.7-1.5-9.4-8-9.4
		c-5.9,0-8.4,5.4-8.9,9.4H208.3z"/>
	<path class="st0" d="M221.1,73.5c0-3.7-0.1-7-0.3-9.9h5.1l0.2,6.2h0.3c1.4-4.3,4.9-7,8.8-7c0.7,0,1.1,0.1,1.6,0.2v5.5
		c-0.6-0.1-1.2-0.2-2-0.2c-4.1,0-7,3.1-7.8,7.4c-0.1,0.8-0.3,1.7-0.3,2.7v17h-5.7V73.5z"/>
	<path class="st0" d="M245.1,80.6c0.1,7.8,5.1,11,10.9,11c4.1,0,6.6-0.7,8.8-1.6l1,4.1c-2,0.9-5.5,2-10.6,2c-9.8,0-15.6-6.4-15.6-16
		s5.7-17.2,14.9-17.2c10.4,0,13.1,9.1,13.1,15c0,1.2-0.1,2.1-0.2,2.7H245.1z M262.1,76.4c0.1-3.7-1.5-9.4-8-9.4
		c-5.9,0-8.4,5.4-8.9,9.4H262.1z"/>
	<path class="st0" d="M302.3,48.8v38.4c0,2.8,0.1,6,0.3,8.2h-5.2l-0.3-5.5H297c-1.8,3.6-5.7,6.2-10.8,6.2c-7.7,0-13.6-6.5-13.6-16.2
		c-0.1-10.6,6.5-17.1,14.3-17.1c4.9,0,8.2,2.3,9.6,4.9h0.1v-19H302.3z M296.5,76.6c0-0.7-0.1-1.7-0.3-2.4c-0.9-3.7-4-6.7-8.3-6.7
		c-6,0-9.5,5.3-9.5,12.3c0,6.4,3.2,11.8,9.4,11.8c3.9,0,7.4-2.6,8.5-6.9c0.2-0.8,0.3-1.6,0.3-2.5V76.6z"/>
	<path class="st0" d="M325.6,95.4c0.1-2.2,0.3-5.4,0.3-8.2V48.8h5.7v20h0.1c2-3.5,5.7-5.9,10.8-5.9c7.9,0,13.5,6.6,13.4,16.2
		c0,11.4-7.2,17-14.3,17c-4.6,0-8.3-1.8-10.6-6h-0.2l-0.3,5.3H325.6z M331.6,82.7c0,0.7,0.1,1.4,0.3,2.1c1.1,4,4.5,6.8,8.7,6.8
		c6,0,9.7-4.9,9.7-12.2c0-6.4-3.3-11.8-9.5-11.8c-3.9,0-7.6,2.7-8.8,7.1c-0.1,0.7-0.3,1.4-0.3,2.4V82.7z"/>
	<path class="st0" d="M364.9,63.6l7,18.8c0.7,2.1,1.5,4.6,2,6.5h0.1c0.6-1.9,1.2-4.3,2-6.6l6.3-18.7h6.1l-8.7,22.7
		c-4.1,10.9-7,16.5-10.9,19.9c-2.8,2.5-5.7,3.5-7.1,3.7l-1.4-4.9c1.4-0.5,3.4-1.4,5.1-2.8c1.6-1.2,3.5-3.5,4.9-6.4
		c0.3-0.6,0.5-1.1,0.5-1.4c0-0.3-0.1-0.8-0.4-1.5l-11.8-29.3H364.9z"/>
</g>
<g>
	<polygon class="st0" points="127.3,244.2 106.1,164.2 91.2,164.2 127.3,300.7 127.3,352.7 77.4,164.2 62.5,164.2 119.8,381 
		127.3,381 134.8,381 142.2,381 142.2,164.2 127.3,164.2 	"/>
	<path class="st0" d="M393.1,381l-57.3-216.8h-7.5h-7.5h-7.5V381h14.9l39.4-39.4l10.4,39.4H393.1L393.1,381z M354.5,291.4
		l-26.2,26.2V192.4L354.5,291.4z M328.3,359.9v-21.2l30.6-30.6l4.4,16.7L328.3,359.9z"/>
	<path class="st0" d="M173.7,164.2h-7.5h-7.5V381h14.9l39.4-39.4l10.4,39.4h14.9l-57.3-216.8H173.7z M199.9,291.4l-26.2,26.2V192.4
		L199.9,291.4z M173.7,359.9v-21.2l30.6-30.6l4.4,16.7L173.7,359.9z"/>
	<path class="st0" d="M300.5,298.1l-35.4-134h-7.5h-7.5h-7.5V381h14.9v-40.2l13.7-13.7l14.3,53.9l14.9-0.1l-17.3-65.6l5.5-5.5
		L300.5,298.1z M257.6,319.7V192.4l26.6,100.6L257.6,319.7z"/>
</g>
</svg>
