<?xml version="1.0" encoding="utf-8"?>
<!-- Generator: Adobe Illustrator 25.2.1, SVG Export Plug-In . SVG Version: 6.00 Build 0)  -->
<svg version="1.1" id="Capa_1" xmlns="http://www.w3.org/2000/svg" xmlns:xlink="http://www.w3.org/1999/xlink" x="0px" y="0px"
	 viewBox="0 0 927.9 318.2" style="enable-background:new 0 0 927.9 318.2;" xml:space="preserve">
<style type="text/css">
	.st0{fill:#454545;}
</style>
<g>
	<g>
		<g>
			<path d="M678,163.3c0,0-20.4,8.4-50.1,8.4s-49.4-8.4-49.4-8.4l-5.4,34.8l10.7,3.1l10.7-19l8.2,1.8l3.1,21.2l11.1,0.8l6.9-20.3
				h8.3l7.2,20.3l11.6-0.8l2.8-21.2l8.1-1.5l10.6,18.6l10.9-3L678,163.3z"/>
			<path d="M561.7,244.6c0,0,20.4-8.4,50.1-8.4c29.7,0,49.4,8.4,49.4,8.4l5.4-34.8l-10.7-3.1l-10.7,19l-8.2-1.8l-3.1-21.2l-11.1-0.8
				l-6.9,20.3h-8.3l-7.2-20.3l-11.6,0.8l-2.8,21.2l-8.1,1.5l-10.6-18.6l-10.9,3L561.7,244.6z"/>
		</g>
		<g>
			<path d="M796.1,178.8c-11.8-3.4-26.8,1.1-32.6,12.4c-5.8,11.3-3,24.8,5.7,32.6c8.7,7.7,20.5,8.2,30.4,4.5
				c9.9-3.7,12.8-11.6,12.8-11.6l-10-6.1c-4.5,6.2-13,8.4-18.7,5.3c-5.8-3.1-6.6-7.8-6.6-7.8h35.9
				C814.1,194.2,807.9,182.2,796.1,178.8z M777.5,197.6c0,0,1.9-6.7,10.1-6.7c8.2,0,10.1,6.7,10.1,6.7H777.5z"/>
			<path d="M743,180.1c0,0-1,3.6-1.8,5.3c0,0-4.8-6.9-16-6.5c-11.2,0.4-21.3,6.8-23.2,19.8s2.7,24.8,15.4,29.2
				c12.6,4.3,21.3-2,24.1-6.8c0,0,0.6,0,0.1,2.7c-0.5,2.7-2.8,8.7-10,10.4c-7.2,1.7-14.1-2.6-14.1-2.6l-6,12.9c0,0,8.3,4.6,17.9,4.3
				c9.6-0.3,14.7-2.4,19.3-8.3c4.6-5.9,5.7-14.8,5.7-19.5c0-4.7,0-40.9,0-40.9H743z M728.6,215.5c-6.2,0-11.2-5.2-11.2-11.7
				c0-6.5,5-11.7,11.2-11.7c6.2,0,11.2,5.2,11.2,11.7C739.8,210.3,734.8,215.5,728.6,215.5z"/>
			<path d="M860.4,180.1c0,0-1,3.6-1.8,5.3c0,0-4.8-6.9-16-6.5c-11.2,0.4-21.3,6.8-23.2,19.8c-1.9,13,2.7,24.8,15.4,29.2
				c12.6,4.3,21.3-2,24.1-6.8c0,0,0.1,4,0.1,6.6c2.4,0,9.2,0,12.8,0c0-4.7,0-47.6,0-47.6H860.4z M846,215.5
				c-6.2,0-11.2-5.2-11.2-11.7c0-6.5,5-11.7,11.2-11.7c6.2,0,11.2,5.2,11.2,11.7C857.2,210.3,852.2,215.5,846,215.5z"/>
			<path d="M882.7,180h10.9l2.5,7.9c0,0,0.4,0.4,0.7-0.2c0.7-1.6,2.7-5.9,9-8.2c6.3-2.3,12.8,1.2,12.8,1.2l-5.8,13.5
				c0,0-4.9-2-9.3,0c-4.4,2-5.9,6.3-5.9,9.2s0,24.3,0,24.3h-15V180z"/>
		</g>
	</g>
	<g>
		<path d="M557.4,107c0-4.4-0.1-7.9-0.3-11.2h5.6l0.3,5.9h0.1c2.6-4.2,6.6-6.7,12.2-6.7c8.3,0,14.5,7,14.5,17.4
			c0,12.3-7.5,18.4-15.6,18.4c-4.5,0-8.5-2-10.6-5.4h-0.1v18.7h-6.2V107z M563.6,116.2c0,0.9,0.1,1.8,0.3,2.6
			c1.1,4.3,4.9,7.3,9.4,7.3c6.6,0,10.4-5.4,10.4-13.3c0-6.9-3.6-12.8-10.2-12.8c-4.3,0-8.2,3.1-9.4,7.7c-0.2,0.8-0.4,1.7-0.4,2.6
			V116.2z"/>
		<path d="M628.8,112.7c0,12.7-8.8,18.2-17.1,18.2c-9.3,0-16.5-6.8-16.5-17.7c0-11.5,7.5-18.2,17-18.2
			C622.2,95,628.8,102.2,628.8,112.7z M601.6,113c0,7.5,4.3,13.2,10.4,13.2c6,0,10.4-5.6,10.4-13.3c0-5.8-2.9-13.2-10.3-13.2
			C604.8,99.7,601.6,106.5,601.6,113z"/>
		<path d="M638.7,95.8l4.5,17.4c1,3.8,1.9,7.4,2.6,10.9h0.2c0.8-3.5,1.9-7.2,3-10.8l5.6-17.5h5.2l5.3,17.2c1.3,4.1,2.3,7.7,3,11.2
			h0.2c0.6-3.5,1.5-7.1,2.6-11.1l4.9-17.2h6.2l-11.1,34.3h-5.7l-5.2-16.4c-1.2-3.8-2.2-7.2-3.1-11.3H657c-0.9,4.1-1.9,7.7-3.1,11.3
			l-5.5,16.3h-5.7l-10.4-34.3H638.7z"/>
		<path d="M691.2,114.1c0.1,8.4,5.5,11.9,11.8,11.9c4.5,0,7.2-0.8,9.5-1.8l1.1,4.5c-2.2,1-6,2.1-11.4,2.1c-10.6,0-16.9-7-16.9-17.3
			S691.3,95,701.3,95c11.2,0,14.2,9.9,14.2,16.2c0,1.3-0.1,2.3-0.2,2.9H691.2z M709.5,109.6c0.1-4-1.6-10.1-8.7-10.1
			c-6.3,0-9.1,5.8-9.6,10.1H709.5z"/>
		<path d="M723.2,106.5c0-4-0.1-7.5-0.3-10.7h5.5l0.2,6.7h0.3c1.6-4.6,5.3-7.5,9.5-7.5c0.7,0,1.2,0.1,1.8,0.2v5.9
			c-0.6-0.1-1.3-0.2-2.1-0.2c-4.4,0-7.5,3.3-8.4,8c-0.1,0.9-0.3,1.8-0.3,2.9v18.3h-6.2V106.5z"/>
		<path d="M749.2,114.1c0.1,8.4,5.5,11.9,11.8,11.9c4.5,0,7.2-0.8,9.5-1.8l1.1,4.5c-2.2,1-6,2.1-11.4,2.1c-10.6,0-16.9-7-16.9-17.3
			S749.3,95,759.3,95c11.2,0,14.2,9.9,14.2,16.2c0,1.3-0.1,2.3-0.2,2.9H749.2z M767.5,109.6c0.1-4-1.6-10.1-8.7-10.1
			c-6.3,0-9.1,5.8-9.6,10.1H767.5z"/>
		<path d="M810.9,79.8v41.5c0,3.1,0.1,6.5,0.3,8.9h-5.6l-0.3-6h-0.1c-1.9,3.8-6.1,6.7-11.7,6.7c-8.3,0-14.7-7-14.7-17.4
			c-0.1-11.4,7-18.4,15.4-18.4c5.2,0,8.8,2.5,10.4,5.2h0.1V79.8H810.9z M804.7,109.8c0-0.8-0.1-1.8-0.3-2.6c-0.9-4-4.3-7.2-9-7.2
			c-6.5,0-10.3,5.7-10.3,13.3c0,7,3.4,12.7,10.1,12.7c4.2,0,8-2.8,9.1-7.4c0.2-0.9,0.3-1.7,0.3-2.7V109.8z"/>
		<path d="M836,130.1c0.1-2.3,0.3-5.8,0.3-8.9V79.8h6.2v21.6h0.1c2.2-3.8,6.2-6.3,11.7-6.3c8.5,0,14.5,7.1,14.5,17.5
			c0,12.3-7.7,18.4-15.4,18.4c-5,0-8.9-1.9-11.5-6.5h-0.2l-0.3,5.7H836z M842.5,116.4c0,0.8,0.1,1.6,0.3,2.3
			c1.2,4.3,4.8,7.3,9.4,7.3c6.5,0,10.4-5.3,10.4-13.2c0-6.9-3.5-12.8-10.2-12.8c-4.3,0-8.2,2.9-9.5,7.7c-0.1,0.7-0.4,1.6-0.4,2.6
			V116.4z"/>
		<path d="M878.4,95.8l7.5,20.3c0.8,2.3,1.6,5,2.2,7h0.1c0.6-2.1,1.3-4.7,2.2-7.2l6.8-20.1h6.6l-9.4,24.5
			c-4.5,11.8-7.5,17.8-11.8,21.5c-3.1,2.7-6.1,3.8-7.7,4l-1.6-5.2c1.6-0.5,3.6-1.5,5.5-3.1c1.7-1.3,3.8-3.8,5.2-6.9
			c0.3-0.6,0.5-1.1,0.5-1.5s-0.1-0.9-0.4-1.6l-12.7-31.6H878.4z"/>
	</g>
	<rect x="475.9" y="23.3" class="st0" width="2.2" height="271.6"/>
	<g>
		<polygon points="90.5,123.5 64,23.3 45.3,23.3 90.5,194.3 90.5,259.5 28,23.3 9.3,23.3 81.1,294.9 90.5,294.9 99.8,294.9 
			109.2,294.9 109.2,23.3 90.5,23.3 		"/>
		<path d="M423.5,294.9L351.7,23.3h-9.4H333h-9.4v271.6h18.7l49.4-49.4l13.1,49.4H423.5L423.5,294.9z M375.1,182.7l-32.8,32.8V58.7
			L375.1,182.7z M342.3,268.4v-26.5l38.3-38.3l5.5,21L342.3,268.4z"/>
		<path d="M148.6,23.3h-9.4h-9.4v271.6h18.7l49.4-49.4l13.1,49.4h18.7L158,23.3H148.6z M181.4,182.7l-32.8,32.8V58.7L181.4,182.7z
			 M148.6,268.4v-26.5l38.3-38.3l5.5,21L148.6,268.4z"/>
		<path d="M307.5,191.1L263.1,23.3h-9.4h-9.4H235v271.6h18.7v-50.4l17.2-17.2l17.9,67.6l18.7-0.1l-21.7-82.2l6.9-6.9L307.5,191.1z
			 M253.7,218.1V58.7l33.3,126.1L253.7,218.1z"/>
	</g>
</g>
</svg>
