<svg xmlns="http://www.w3.org/2000/svg" xml:space="preserve" id="Capa_1" x="0" y="0" style="enable-background:new 0 0 2259.46 548.63" version="1.1" viewBox="0 0 2259.46 548.63"><style>.st0{fill:#0ff}.st1{fill:#f0f}.st2{fill:#ff0}</style><switch><g><path d="M672.63 546.93 540.75 121.08l-71.3 51.63 50.75 142.32-50.75-24.29-35.42-92.38-63.76 46.17 37.89 92.55 143.23 65.42 29.28 82.13zM830.07 362.74h-44.09l39.7-24.88-26.16-148.35H582.81l89.82 295.11h178.93l-21.49-121.88zM688.32 266.5h41.35l6.16 25.69-34.67 22.44-12.84-48.13zm39.92 157.57-5.7-21.57 34.55-21.65 10.36 43.22h-39.21zM200.93 359.89h-71.5l119.08 85.21 22.06 39.53h114.72l29.28 62.3 36.36-62.3-73.14-167.27-54.03 37.63 33.07 69.07h-42.77L202.14 205.2h49.9l44.42 92.78 55.33-40.07-59.83-136.83H156.51L0 0zM1031.92 424.07h-95.17l-5.96-43.22h78.32l-26.38-65h-60.91l-6.81-49.35h106.95l16.95-76.99H822.34l48.47 295.12h180.36zM1273.58 189.51h-213.86l12.83 357.42 70.57-62.3h.71v-82.17l38.67-21.07-2.75 103.24h73.15l8.69-124.02-40.96.01 42.58-23.2 10.37-147.91zm-87.68 101.06-42.06 24.06V266.5h42.06v24.07zM1426.85 356.33l-11.41 67.74h-41.34l32.08-218.87h46.33l-16.39 93.46 85.3-43.33 28.04-130.69h-135.44l-97.53 64.87-26.51 295.12h115.11l-11.03 62.3 79.13-62.3 35.62-169.75zM1573.23 124.64l-83.65 359.99h91.25l35.65-61.06h-36.62l64.65-234.06zM1709.15 189.51h84.83l-81.27 231.86h38.85l87.33-231.86 112.63-64.87-153.98 359.99h-181.06zM2079.13 337.79l84.6-148.28 68.16-125.16-161.82 125.16h-123.54l-158.26 357.42 99.8-62.3h109.78l23.52-41.33 114.06-82.69h-110.49l54.19-22.82zM1955.81 425h-38.02l10.5-21.92 49.99-21.71-22.47 43.63zm14.66-109.97 23.36-48.76h43.71l-12.64 24.55-54.43 24.21z" class="st0"/><path d="M695.31 546.93 563.43 121.08l-71.31 51.63 50.75 142.32-50.75-24.29-35.41-92.38-63.76 46.17 37.89 92.55 143.22 65.42 29.29 82.13zM852.75 362.74h-44.09l39.7-24.88-26.16-148.35H605.49l89.82 295.11h178.93l-21.49-121.88zM710.99 266.5h41.35l6.16 25.69-34.67 22.44-12.84-48.13zm39.92 157.57-5.7-21.57 34.55-21.65 10.36 43.22h-39.21zM223.61 359.89H152.1l119.08 85.21 22.07 39.53h114.72l29.28 62.3 36.36-62.3-73.14-167.27-54.03 37.63 33.07 69.07h-42.77L224.82 205.2h49.9l44.42 92.78 55.33-40.07-59.83-136.83H179.19L22.68 0zM1054.6 424.07h-95.17l-5.96-43.22h78.32l-26.38-65H944.5l-6.81-49.35h106.94l16.96-76.99H845.01l48.48 295.12h180.36zM1296.26 189.51H1082.4l12.83 357.42 70.57-62.3h.71v-82.17l38.67-21.07-2.75 103.24h73.15l8.69-124.02-40.96.01 42.58-23.2 10.37-147.91zm-87.68 101.06-42.06 24.06V266.5h42.06v24.07zM1449.53 356.33l-11.41 67.74h-41.34l32.07-218.87h46.34l-16.39 93.46 85.3-43.33 28.04-130.69H1436.7l-97.53 64.87-26.51 295.12h115.1l-11.02 62.3 79.12-62.3 35.62-169.75zM1595.9 124.64l-83.64 359.99h91.25l35.64-61.06h-36.61l64.65-234.06zM1731.83 189.51h84.83l-81.27 231.86h38.85l87.33-231.86 112.63-64.87-153.98 359.99h-181.07zM1950.96 403.08l49.99-21.71-22.47 43.63h-38.02l10.5-21.92zm65.55-136.81h43.71l-12.64 24.55-54.43 24.22 23.36-48.77zm83.13-76.76h-130.43l-158.26 357.42 99.8-62.3h109.78l23.53-41.33 114.06-82.69h-110.5l54.18-22.81 157.66-273.43-159.82 125.14z" class="st1"/><path d="m593.67 483.34-29.06-81.52-1.05-1.14-142.51-65.09-37-90.36 60.38-43.73 34.49 89.96 1 1.08 50.75 24.29 2.75-2.47-50.25-140.91L551 124.33l129.37 417.75z" class="st2"/><path d="m549.92 127.59 126.86 409.64-81.44-55.18-28.85-80.9-2.11-2.3L422.6 334.1l-36.1-88.17 57-41.28 33.55 87.52 2.01 2.18 50.75 24.29 5.49-4.95-49.74-139.49 64.36-46.61zm2.17-6.51-71.3 51.63 50.75 142.32-50.75-24.29-35.42-92.38-63.76 46.17 37.89 92.55 143.23 65.42 29.29 82.13 91.96 62.31-131.89-425.86z"/><path d="m685.45 482.63-88.6-291.11h212.34l25.64 145.37-38.56 24.16 1.06 3.7h42.41l20.79 117.88H685.45zm47.36-81.83-.87 2.21 5.7 21.57 1.93 1.49h39.21l1.94-2.47-10.36-43.22-3.01-1.23-34.54 21.65zm-35.09-133.78 12.83 48.13 3.02 1.16 34.67-22.44.86-2.15-6.16-25.69-1.94-1.53h-41.35l-1.93 2.52z" class="st2"/><path d="m807.51 193.51 25.11 142.39-37.42 23.45 2.12 7.39h40.73l20.08 113.89h-171.2l-87.39-287.11h207.97zm-92.85 124.48 34.67-22.44 1.72-4.29-6.16-25.69-3.89-3.07h-41.35l-3.86 5.03 12.83 48.13 6.04 2.33m24.92 110.08h39.21l3.89-4.93-10.36-43.21-6.01-2.46-34.55 21.65-1.74 4.41 5.7 21.57 3.86 2.97m71.28-238.56H594.15l89.82 295.11H862.9l-21.49-121.89h-44.09l39.7-24.88-26.16-148.34zm-98.37 125.12-12.83-48.13H741l6.16 25.69-34.67 22.44zm27.09 109.44-5.7-21.57 34.55-21.65 10.36 43.22h-39.21z"/><path d="m398.44 483.78-1.81-1.15H283.09l-21.5-38.5-.58-.66L147 361.89h65.27l1.75-2.97L17.86 7.57l148.77 115.09 1.22.42h134.14l58.66 134.16-52.08 37.71-43.39-90.62-1.8-1.13h-49.9l-1.78 2.91 111.92 218.87 1.78 1.09h42.77l1.8-2.87-32.33-67.54 50.63-35.26 71.76 164.1-33.93 58.14z" class="st2"/><path d="m263.34 443.15-1.17-1.3-108.95-77.96h59.04l3.49-5.95L24.37 15.14l141.03 109.1 2.45.84h132.83l57.49 131.48-48.84 35.37-42.35-88.46-3.61-2.27h-49.9l-3.56 5.82 111.92 218.87 3.56 2.18h42.77l3.61-5.73-31.6-66.01 47.24-32.9 70.37 160.93-31.49 53.98-26.04-55.42-3.62-2.3H284.26l-20.92-37.47zM11.34 0l200.93 359.89h-71.51l119.08 85.21 22.07 39.53h114.72l29.28 62.3 36.36-62.3-73.14-167.26L335.1 355l33.07 69.07H325.4L213.48 205.2h49.9l44.42 92.78 55.33-40.07-59.83-136.83H167.85L11.34 0z"/><path d="m883.85 482.63-47.82-291.12h211.73l-16.07 72.99H926.35l-1.98 2.28 6.81 49.34 1.98 1.73h59.56l24.76 61h-75.35l-1.98 2.27 5.96 43.22 1.98 1.73h93.71l17.97 56.56z" class="st2"/><path d="m1045.28 193.51-15.2 68.99H926.35l-3.96 4.55 6.81 49.34 3.96 3.45h58.22l23.13 57h-72.38l-3.96 4.55 5.96 43.22 3.96 3.45h92.24l16.7 52.56H885.55l-47.16-287.11h206.89zm4.97-4H833.67l48.47 295.11h180.36l-19.25-60.56h-95.17l-5.96-43.22h78.32l-26.38-65h-60.91l-6.81-49.34h106.95l16.96-76.99z"/><path d="M1073.13 191.51h209.64l-10.14 144.67-41.62 22.68.96 3.76 38.81-.01-8.41 120.02h-69.23l2.69-101.18-2.96-1.81-38.67 21.07-1.04 1.76v80.66l-.04.01-67.4 59.51-12.59-351.14zm80.05 74.99v48.13l2.99 1.74 42.06-24.06 1.01-1.74V266.5l-2-2h-42.06l-2 2z" class="st2"/><path d="m1280.63 193.51-9.91 141.43-40.66 22.15 1.91 7.51 36.67-.01-8.13 116.02h-65.31l2.64-99.13-5.91-3.62-38.67 21.07-2.09 3.51v79.74l-63.59 56.14-12.38-344.82h205.43zM1157.17 318.1l42.06-24.06 2.01-3.47V266.5l-4-4h-42.06l-4 4v48.13l5.99 3.47m127.75-128.59h-213.86l12.83 357.42 70.57-62.31h.71v-82.17l38.67-21.07-2.75 103.24h73.15l8.69-124.02-40.96.01 42.58-23.2 10.37-147.9zm-129.74 125.12V266.5h42.06v24.06l-42.06 24.07z"/><path d="m1418.39 484.97-1.96-2.34h-112.92l26.23-291.98 96.22-64.01h132.37l-27.32 127.34-80.89 41.08 15.7-89.52-1.97-2.34h-46.33l-1.98 1.71-32.08 218.87 1.98 2.29h41.34l1.98-1.67 11.23-66.75 77.34-39.11-34.61 164.96-74.44 58.62z" class="st2"/><path d="m1555.85 128.64-26.6 123.99-76.47 38.84 15.01-85.58-3.94-4.69h-46.34l-3.96 3.42-32.08 218.87 3.96 4.58h41.35l3.94-3.34 11.07-65.75 72.72-36.78-33.61 160.18-69.74 54.92 9.2-51.98-3.94-4.7h-110.73l25.95-288.84 94.93-63.14h129.28zm4.95-4h-135.45l-97.53 64.87-26.51 295.11h115.11l-11.03 62.31 79.13-62.31 35.62-169.75-81.96 41.45-11.41 67.74h-41.35l32.08-218.87h46.34l-16.4 93.46 85.31-43.33 28.05-130.68z"/><path d="m1503.44 482.63 82.3-354.21 67.86 61.75-64.33 232.87 1.93 2.53h33.13l-33.31 57.06z" class="st2"/><path d="m1586.92 132.19 64.42 58.62-64 231.69 3.86 5.07h29.64l-30.97 53.05h-83.91l80.96-348.43zm-2.35-7.55-83.64 359.98h91.25l35.64-61.05h-36.61l64.65-234.06-71.29-64.87z"/><path d="m1630.54 482.63 91.41-291.12h80.55l-80.34 229.2 1.89 2.66h38.85l1.87-1.29 87.08-231.19 106.82-61.52-151.11 353.26z" class="st2"/><path d="m1954.47 134.09-148.23 346.53h-172.98l90.16-287.11h76.26l-79.4 226.54 3.78 5.32h38.85l3.74-2.59 86.82-230.52 101-58.17zm8.39-9.45-112.63 64.87-87.33 231.86h-38.85l81.27-231.86h-84.83l-92.67 295.11h181.07l153.97-359.98z"/><path d="M1959.17 191.51h124.43l1.21-.41 155.66-119.08-67.14 116.49-84.27 147.7-53.55 22.55.78 3.84h104.33l-109.07 79.07-.56.63-22.95 40.32h-108.62l-1.06.3-94.28 58.86 155.09-350.27zm-20.35 209.74-1.01.97-10.5 21.92 1.8 2.86h38.02l1.78-1.08 22.46-43.63-2.57-2.75-49.98 21.71zm64.54-135.85L1980 314.16l2.62 2.69 54.44-24.21.97-.91 12.64-24.55-1.78-2.92h-43.71l-1.82 1.14z" class="st2"/><path d="m2233.75 79.68-62.16 107.85-83.93 147.1-52.93 22.29 1.55 7.69h98.16l-104.07 75.45-1.13 1.26-22.37 39.31h-107.46l-2.12.61-88.75 55.41 151.93-343.13h123.12l2.43-.82 147.73-113.02zm-250.32 239 54.44-24.21 1.93-1.82 12.64-24.55-3.56-5.83h-43.71l-3.61 2.27-23.36 48.76 5.23 5.38M1929.12 429h38.02l3.56-2.17 22.46-43.63-5.15-5.5-49.99 21.71-2.01 1.94-10.5 21.92 3.61 5.73M2247.2 64.36l-163.6 125.16h-125.73l-158.26 357.42 99.8-62.31h109.78l23.52-41.33 114.06-82.69h-110.5l54.18-22.81 84.6-148.28 72.15-125.16zm-265.39 250.67 23.36-48.76h43.71l-12.64 24.55-54.43 24.21zM1929.12 425l10.5-21.92 49.99-21.71-22.47 43.63h-38.02z"/></g></switch></svg>